<?xml version="1.0" encoding="UTF-8"?>
<svg xmlns="http://www.w3.org/2000/svg" xmlns:xlink="http://www.w3.org/1999/xlink" width="239pt" height="238pt" viewBox="0 0 239 238" version="1.1">
<g id="surface1">
<path style=" stroke:none;fill-rule:nonzero;fill:rgb(72.54902%,87.843137%,92.941176%);fill-opacity:1;" d="M 237.554688 118.960938 C 237.554688 184.273438 184.734375 237.21875 119.578125 237.21875 C 54.421875 237.21875 1.601562 184.273438 1.601562 118.960938 C 1.601562 53.648438 54.421875 0.703125 119.578125 0.703125 C 184.734375 0.703125 237.554688 53.648438 237.554688 118.960938 Z M 237.554688 118.960938 "/>
<path style=" stroke:none;fill-rule:nonzero;fill:rgb(47.058824%,68.235294%,70.980392%);fill-opacity:1;" d="M 150.078125 85.570312 C 150.078125 83.128906 136.230469 81.148438 119.148438 81.148438 C 102.066406 81.148438 88.21875 83.128906 88.21875 85.570312 C 88.21875 88.011719 102.066406 89.992188 119.148438 89.992188 C 136.230469 89.992188 150.078125 88.011719 150.078125 85.570312 Z M 150.078125 85.570312 "/>
<path style=" stroke:none;fill-rule:nonzero;fill:rgb(47.058824%,68.235294%,70.980392%);fill-opacity:1;" d="M 223.417969 147.890625 C 223.417969 145.445312 209.832031 143.464844 193.074219 143.464844 C 176.316406 143.464844 162.730469 145.445312 162.730469 147.890625 C 162.730469 150.332031 176.316406 152.3125 193.074219 152.3125 C 209.832031 152.3125 223.417969 150.332031 223.417969 147.890625 Z M 223.417969 147.890625 "/>
<path style=" stroke:none;fill-rule:nonzero;fill:rgb(47.058824%,68.235294%,70.980392%);fill-opacity:1;" d="M 70.800781 147.890625 C 70.800781 145.445312 58.632812 143.464844 43.621094 143.464844 C 28.609375 143.464844 16.441406 145.445312 16.441406 147.890625 C 16.441406 150.332031 28.609375 152.3125 43.621094 152.3125 C 58.632812 152.3125 70.800781 150.332031 70.800781 147.890625 Z M 70.800781 147.890625 "/>
<path style=" stroke:none;fill-rule:nonzero;fill:rgb(47.058824%,68.235294%,70.980392%);fill-opacity:1;" d="M 156.210938 210.441406 C 156.210938 208 140.160156 206.019531 120.359375 206.019531 C 100.558594 206.019531 84.507812 208 84.507812 210.441406 C 84.507812 212.886719 100.558594 214.867188 120.359375 214.867188 C 140.160156 214.867188 156.210938 212.886719 156.210938 210.441406 Z M 156.210938 210.441406 "/>
<path style=" stroke:none;fill-rule:nonzero;fill:rgb(100%,66.666667%,12.54902%);fill-opacity:1;" d="M 96.890625 149.21875 C 102.824219 144.050781 110.207031 141.039062 118.09375 140.53125 C 118.757812 140.492188 119.421875 140.453125 120.085938 140.453125 L 120.203125 140.453125 C 120.90625 140.453125 121.609375 140.453125 122.3125 140.492188 C 130.199219 140.921875 137.582031 143.855469 143.554688 148.984375 C 144.257812 149.570312 144.921875 150.199219 145.585938 150.863281 C 145.9375 151.214844 146.25 151.570312 146.601562 151.921875 C 152.304688 158.027344 155.625 165.816406 156.132812 174.15625 C 156.171875 174.859375 156.210938 175.5625 156.210938 176.269531 C 156.210938 176.972656 156.210938 177.679688 156.171875 178.382812 C 155.742188 186.71875 152.460938 194.511719 146.796875 200.695312 C 146.484375 201.046875 146.132812 201.398438 145.78125 201.753906 C 145.117188 202.417969 144.453125 203.042969 143.75 203.632812 C 137.816406 208.796875 130.433594 211.8125 122.546875 212.28125 C 121.84375 212.320312 121.140625 212.359375 120.4375 212.359375 L 120.320312 212.359375 C 119.65625 212.359375 118.992188 212.359375 118.328125 212.320312 C 110.441406 211.890625 103.058594 208.953125 97.085938 203.828125 C 96.382812 203.238281 95.71875 202.613281 95.054688 201.949219 C 94.703125 201.59375 94.390625 201.242188 94.039062 200.890625 C 88.335938 194.785156 85.015625 186.996094 84.507812 178.65625 C 84.46875 177.953125 84.429688 177.246094 84.429688 176.542969 C 84.429688 175.839844 84.429688 175.132812 84.46875 174.429688 C 84.898438 166.089844 88.179688 158.300781 93.84375 152.117188 C 94.15625 151.765625 94.507812 151.410156 94.859375 151.058594 C 95.523438 150.472656 96.226562 149.808594 96.890625 149.21875 Z M 96.890625 149.21875 "/>
<path style=" stroke:none;fill-rule:nonzero;fill:rgb(100%,53.72549%,0%);fill-opacity:1;" d="M 96.890625 149.21875 C 102.824219 144.050781 110.207031 141.039062 118.09375 140.53125 C 118.757812 140.492188 119.421875 140.453125 120.085938 140.453125 L 120.359375 212.320312 C 119.695312 212.320312 119.03125 212.320312 118.367188 212.28125 C 110.480469 211.851562 103.097656 208.914062 97.121094 203.789062 C 96.421875 203.199219 95.757812 202.574219 95.09375 201.910156 C 94.742188 201.554688 94.429688 201.203125 94.078125 200.851562 C 88.375 194.746094 85.054688 186.957031 84.546875 178.617188 C 84.507812 177.914062 84.46875 177.207031 84.46875 176.503906 C 84.46875 175.800781 84.46875 175.09375 84.507812 174.390625 C 84.9375 166.050781 88.21875 158.261719 93.882812 152.078125 C 94.195312 151.726562 94.546875 151.371094 94.898438 151.019531 C 95.523438 150.472656 96.226562 149.808594 96.890625 149.21875 Z M 96.890625 149.21875 "/>
<path style=" stroke:none;fill-rule:nonzero;fill:rgb(60.392157%,29.803922%,0%);fill-opacity:1;" d="M 94.898438 151.097656 C 95.5625 150.433594 96.226562 149.808594 96.929688 149.21875 C 100.246094 152.625 102.863281 156.539062 104.777344 160.886719 C 106.652344 165.152344 107.746094 169.691406 107.980469 174.390625 L 118.25 174.351562 L 118.132812 140.570312 C 118.796875 140.53125 119.460938 140.492188 120.125 140.492188 L 120.242188 140.492188 C 120.945312 140.492188 121.648438 140.492188 122.351562 140.53125 L 122.46875 174.3125 L 132.738281 174.273438 C 132.972656 169.613281 133.988281 165.074219 135.863281 160.765625 C 137.738281 156.421875 140.316406 152.46875 143.59375 149.0625 C 144.296875 149.648438 144.960938 150.277344 145.625 150.941406 C 145.976562 151.292969 146.289062 151.648438 146.640625 152 C 140.824219 158.105469 137.425781 165.894531 136.957031 174.3125 L 156.171875 174.234375 C 156.210938 174.9375 156.25 175.640625 156.25 176.347656 C 156.25 177.050781 156.25 177.757812 156.210938 178.460938 L 136.996094 178.539062 C 137.503906 186.917969 140.980469 194.707031 146.835938 200.773438 C 146.523438 201.125 146.171875 201.476562 145.820312 201.832031 C 145.15625 202.496094 144.492188 203.121094 143.789062 203.710938 C 140.472656 200.304688 137.855469 196.390625 135.941406 192.042969 C 134.066406 187.777344 132.972656 183.238281 132.738281 178.539062 L 122.46875 178.578125 L 122.585938 212.359375 C 121.882812 212.398438 121.179688 212.4375 120.476562 212.4375 L 120.359375 212.4375 C 119.695312 212.4375 119.03125 212.4375 118.367188 212.398438 L 118.25 178.617188 L 107.980469 178.65625 C 107.746094 183.316406 106.730469 187.855469 104.855469 192.160156 C 102.980469 196.507812 100.402344 200.460938 97.121094 203.867188 C 96.421875 203.277344 95.757812 202.652344 95.09375 201.988281 C 94.742188 201.632812 94.429688 201.28125 94.078125 200.929688 C 99.894531 194.824219 103.292969 187.035156 103.761719 178.617188 L 84.546875 178.695312 C 84.507812 177.992188 84.46875 177.285156 84.46875 176.582031 C 84.46875 175.878906 84.46875 175.171875 84.507812 174.46875 L 103.722656 174.390625 C 103.214844 166.011719 99.738281 158.222656 93.882812 152.15625 C 94.234375 151.804688 94.546875 151.449219 94.898438 151.097656 Z M 94.898438 151.097656 "/>
<path style=" stroke:none;fill-rule:nonzero;fill:rgb(43.921569%,21.568627%,0%);fill-opacity:1;" d="M 94.898438 151.097656 C 95.5625 150.433594 96.226562 149.808594 96.929688 149.21875 C 100.246094 152.625 102.863281 156.539062 104.777344 160.886719 C 106.652344 165.152344 107.746094 169.691406 107.980469 174.390625 L 118.25 174.351562 L 118.132812 140.570312 C 118.796875 140.53125 119.460938 140.492188 120.125 140.492188 L 120.398438 212.359375 C 119.734375 212.359375 119.070312 212.359375 118.40625 212.320312 L 118.289062 178.539062 L 108.019531 178.578125 C 107.785156 183.238281 106.769531 187.777344 104.894531 192.082031 C 103.019531 196.429688 100.441406 200.382812 97.160156 203.789062 C 96.460938 203.199219 95.796875 202.574219 95.132812 201.910156 C 94.78125 201.554688 94.46875 201.203125 94.117188 200.851562 C 99.933594 194.746094 103.332031 186.957031 103.800781 178.539062 L 84.585938 178.617188 C 84.546875 177.914062 84.507812 177.207031 84.507812 176.503906 C 84.507812 175.800781 84.507812 175.09375 84.546875 174.390625 L 103.761719 174.3125 C 103.253906 165.933594 99.777344 158.144531 93.921875 152.078125 C 94.234375 151.804688 94.546875 151.449219 94.898438 151.097656 Z M 94.898438 151.097656 "/>
<path style=" stroke:none;fill-rule:nonzero;fill:rgb(100%,100%,100%);fill-opacity:1;" d="M 150.117188 54.644531 C 150.117188 71.792969 136.253906 85.648438 119.1875 85.648438 C 102.121094 85.648438 88.257812 71.753906 88.257812 54.644531 C 88.257812 37.539062 102.121094 23.644531 119.1875 23.644531 C 136.253906 23.644531 150.117188 37.5 150.117188 54.644531 Z M 150.117188 54.644531 "/>
<path style=" stroke:none;fill-rule:nonzero;fill:rgb(84.705882%,84.705882%,84.705882%);fill-opacity:1;" d="M 119.148438 23.644531 C 102.042969 23.644531 88.21875 37.539062 88.21875 54.644531 C 88.21875 71.753906 102.082031 85.648438 119.148438 85.648438 Z M 119.148438 23.644531 "/>
<path style=" stroke:none;fill-rule:nonzero;fill:rgb(7.843137%,26.27451%,42.745098%);fill-opacity:1;" d="M 117.15625 44.859375 L 110.246094 49.910156 C 109.074219 50.769531 108.566406 52.296875 108.996094 53.707031 L 111.652344 61.847656 C 112.117188 63.257812 113.40625 64.199219 114.890625 64.199219 L 123.445312 64.199219 C 124.929688 64.199219 126.21875 63.257812 126.6875 61.847656 L 129.339844 53.707031 C 129.808594 52.296875 129.300781 50.769531 128.089844 49.910156 L 121.179688 44.859375 C 119.96875 44 118.367188 44 117.15625 44.859375 Z M 110.246094 28.613281 L 117.15625 33.664062 C 118.328125 34.527344 119.96875 34.527344 121.140625 33.664062 L 128.089844 28.613281 C 129.105469 27.871094 129.652344 26.578125 129.457031 25.367188 C 126.257812 24.230469 122.78125 23.605469 119.1875 23.605469 C 115.59375 23.605469 112.117188 24.230469 108.917969 25.367188 C 108.722656 26.617188 109.230469 27.871094 110.246094 28.613281 Z M 110.246094 28.613281 "/>
<path style=" stroke:none;fill-rule:nonzero;fill:rgb(3.137255%,16.470588%,28.627451%);fill-opacity:1;" d="M 91.734375 55.117188 L 98.644531 50.066406 C 99.816406 49.203125 100.324219 47.679688 99.894531 46.269531 L 97.238281 38.128906 C 96.851562 36.914062 95.796875 36.050781 94.585938 35.816406 C 90.601562 41.023438 88.21875 47.5625 88.21875 54.644531 L 88.21875 55.390625 C 89.351562 55.9375 90.679688 55.859375 91.734375 55.117188 Z M 111.105469 80.953125 L 108.449219 72.808594 C 107.980469 71.398438 106.691406 70.460938 105.207031 70.460938 L 96.65625 70.460938 C 95.367188 70.460938 94.234375 71.164062 93.648438 72.300781 C 97.589844 78.054688 103.449219 82.359375 110.285156 84.394531 C 111.183594 83.496094 111.496094 82.164062 111.105469 80.953125 Z M 111.105469 80.953125 "/>
<path style=" stroke:none;fill-rule:nonzero;fill:rgb(7.843137%,26.27451%,42.745098%);fill-opacity:1;" d="M 141.644531 70.421875 L 133.089844 70.421875 C 131.605469 70.421875 130.316406 71.359375 129.847656 72.769531 L 127.191406 80.914062 C 126.804688 82.125 127.113281 83.457031 128.011719 84.355469 C 134.847656 82.320312 140.667969 77.976562 144.648438 72.261719 C 144.0625 71.164062 142.890625 70.421875 141.644531 70.421875 Z M 143.75 35.816406 C 142.539062 36.011719 141.488281 36.914062 141.097656 38.128906 L 138.441406 46.269531 C 137.972656 47.679688 138.480469 49.203125 139.691406 50.066406 L 146.601562 55.117188 C 147.617188 55.859375 148.984375 55.976562 150.117188 55.429688 L 150.117188 54.683594 C 150.117188 47.5625 147.734375 41.023438 143.75 35.816406 Z M 143.75 35.816406 "/>
<path style=" stroke:none;fill-rule:nonzero;fill:rgb(7.843137%,26.27451%,42.745098%);fill-opacity:1;" d="M 128.285156 77.625 L 127.191406 80.953125 C 126.804688 82.164062 127.113281 83.496094 128.011719 84.394531 C 129.964844 83.808594 131.878906 83.027344 133.636719 82.085938 C 132.035156 80.246094 130.199219 78.796875 128.285156 77.625 Z M 128.285156 77.625 "/>
<path style=" stroke:none;fill-rule:nonzero;fill:rgb(3.137255%,16.470588%,28.627451%);fill-opacity:1;" d="M 108.878906 25.367188 C 108.683594 26.617188 109.191406 27.871094 110.246094 28.613281 L 117.15625 33.664062 C 117.546875 33.898438 119.148438 34.328125 119.148438 34.328125 L 119.148438 23.644531 C 115.554688 23.644531 112.117188 24.230469 108.878906 25.367188 Z M 117.15625 44.859375 L 110.246094 49.910156 C 109.074219 50.769531 108.566406 52.296875 108.996094 53.707031 L 111.652344 61.847656 C 112.117188 63.257812 113.40625 64.199219 114.890625 64.199219 L 119.148438 64.199219 L 119.148438 44.195312 C 118.445312 44.234375 117.78125 44.429688 117.15625 44.859375 Z M 117.15625 44.859375 "/>
<path style=" stroke:none;fill-rule:nonzero;fill:rgb(100%,100%,100%);fill-opacity:1;" d="M 178.234375 133.835938 L 190.535156 149.492188 C 191.394531 149.53125 192.253906 149.570312 193.113281 149.53125 C 206.742188 149.21875 219.199219 139.628906 222.558594 125.734375 C 222.753906 124.949219 222.792969 124.167969 222.949219 123.382812 L 193.152344 127.574219 L 190.730469 127.925781 "/>
<path style=" stroke:none;fill-rule:nonzero;fill:rgb(82.745098%,82.745098%,82.745098%);fill-opacity:1;" d="M 192.996094 127.574219 L 190.691406 127.886719 L 177.765625 129.6875 L 178.234375 133.835938 L 190.535156 149.492188 C 191.394531 149.53125 192.253906 149.570312 193.113281 149.53125 "/>
<path style=" stroke:none;fill-rule:nonzero;fill:rgb(100%,53.72549%,0%);fill-opacity:1;" d="M 221.152344 107.023438 L 193.074219 110.703125 C 193.074219 110.703125 177.882812 130.625 177.804688 129.726562 C 181.046875 131.878906 184.679688 133.5625 188.660156 134.5 C 189.285156 134.65625 189.910156 134.773438 190.535156 134.894531 C 191.394531 135.050781 192.214844 135.167969 193.074219 135.285156 C 200.886719 136.144531 208.734375 134.34375 215.453125 130 C 218.261719 128.199219 220.761719 125.890625 222.910156 123.421875 C 223.847656 117.472656 223.183594 112.03125 221.152344 107.023438 Z M 221.152344 107.023438 "/>
<path style=" stroke:none;fill-rule:nonzero;fill:rgb(7.843137%,26.27451%,42.745098%);fill-opacity:1;" d="M 219.316406 103.265625 C 215.257812 96.140625 208.304688 90.582031 199.714844 88.507812 C 196.628906 87.761719 193.542969 87.566406 190.535156 87.761719 L 205.179688 119.546875 C 211.195312 117.589844 216.699219 113.285156 221.152344 107.0625 C 220.644531 105.730469 220.019531 104.476562 219.316406 103.265625 Z M 219.316406 103.265625 "/>
<path style=" stroke:none;fill-rule:nonzero;fill:rgb(82.745098%,82.745098%,82.745098%);fill-opacity:1;" d="M 193.113281 89.40625 C 192.292969 88.820312 191.433594 88.230469 190.535156 87.722656 C 184.757812 88.113281 178.703125 90.148438 173.78125 93.867188 L 175.34375 108.039062 L 175.890625 112.933594 C 180.890625 116.417969 185.890625 118.804688 190.613281 119.941406 C 191.472656 120.136719 192.292969 120.292969 193.152344 120.449219 "/>
<path style=" stroke:none;fill-rule:nonzero;fill:rgb(100%,100%,100%);fill-opacity:1;" d="M 193.113281 120.449219 C 197.371094 121.074219 201.550781 120.722656 205.179688 119.507812 C 206.390625 112.738281 205.375 105.769531 201.898438 99.464844 C 199.675781 95.394531 196.667969 92.027344 193.113281 89.445312 "/>
<path style=" stroke:none;fill-rule:nonzero;fill:rgb(76.862745%,41.960784%,7.058824%);fill-opacity:1;" d="M 192.996094 113.832031 C 192.996094 113.832031 177.804688 130.625 177.726562 129.726562 C 180.96875 131.878906 184.601562 133.5625 188.582031 134.5 C 189.207031 134.65625 189.832031 134.773438 190.457031 134.894531 C 191.316406 135.050781 192.136719 135.167969 192.996094 135.285156 M 173.820312 93.867188 C 168.472656 97.902344 164.214844 104.007812 162.457031 111.210938 C 159.917969 121.738281 163.121094 132.542969 169.996094 139.863281 L 189.246094 105.378906 C 186.242188 101.425781 181.398438 97.234375 173.820312 93.867188 Z M 173.820312 93.867188 "/>
<path style=" stroke:none;fill-rule:nonzero;fill:rgb(3.137255%,16.470588%,28.627451%);fill-opacity:1;" d="M 187.722656 130.546875 C 188.386719 127.847656 189.519531 125.929688 190.691406 124.480469 C 192.136719 122.679688 193.660156 121.582031 194.363281 120.683594 C 194.207031 120.332031 194.402344 117.121094 193.074219 112.933594 C 192.566406 111.289062 191.824219 109.488281 190.691406 107.648438 C 190.261719 106.902344 189.753906 106.160156 189.207031 105.417969 C 179.914062 108.507812 172.414062 116.300781 169.996094 126.28125 C 168.902344 130.78125 168.902344 135.519531 169.957031 139.902344 C 175.03125 145.304688 182.414062 149.023438 190.535156 149.53125 C 187.253906 143.894531 186.164062 137.007812 187.722656 130.546875 Z M 187.722656 130.546875 "/>
<path style=" stroke:none;fill-rule:nonzero;fill:rgb(7.843137%,26.27451%,42.745098%);fill-opacity:1;" d="M 193.074219 122.015625 C 193.621094 121.503906 194.050781 121.074219 194.363281 120.683594 C 194.207031 120.371094 194.363281 117.355469 193.230469 113.402344 "/>
<path style=" stroke:none;fill-rule:nonzero;fill:rgb(100%,100%,100%);fill-opacity:1;" d="M 70.800781 122.289062 C 70.800781 137.320312 58.65625 149.53125 43.621094 149.53125 C 28.585938 149.53125 16.441406 137.359375 16.441406 122.289062 C 16.441406 107.21875 28.585938 95.042969 43.621094 95.042969 C 58.65625 95.042969 70.800781 107.257812 70.800781 122.289062 Z M 70.800781 122.289062 "/>
<path style=" stroke:none;fill-rule:nonzero;fill:rgb(84.705882%,84.705882%,84.705882%);fill-opacity:1;" d="M 43.621094 95.082031 C 28.625 95.082031 16.441406 107.257812 16.441406 122.328125 C 16.441406 137.398438 28.625 149.53125 43.621094 149.53125 Z M 43.621094 95.082031 "/>
<path style=" stroke:none;fill-rule:nonzero;fill:rgb(76.862745%,41.960784%,7.058824%);fill-opacity:1;" d="M 43.308594 120.292969 L 43.308594 124.441406 C 43.308594 125.496094 42.761719 126.4375 41.863281 126.984375 L 38.269531 129.058594 C 37.371094 129.570312 36.242188 129.570312 35.34375 129.058594 L 31.75 126.984375 C 30.851562 126.476562 30.304688 125.496094 30.304688 124.441406 L 30.304688 120.292969 C 30.304688 119.234375 30.851562 118.296875 31.75 117.746094 L 35.34375 115.671875 C 36.242188 115.164062 37.371094 115.164062 38.269531 115.671875 L 41.863281 117.746094 C 42.761719 118.257812 43.308594 119.234375 43.308594 120.292969 Z M 43.308594 120.292969 "/>
<path style=" stroke:none;fill-rule:nonzero;fill:rgb(3.137255%,16.470588%,28.627451%);fill-opacity:1;" d="M 29.601562 120.292969 L 29.601562 124.441406 C 29.601562 125.496094 29.054688 126.4375 28.15625 126.984375 L 24.5625 129.058594 C 23.664062 129.570312 22.53125 129.570312 21.636719 129.058594 L 18.042969 126.984375 C 17.144531 126.476562 16.597656 125.496094 16.597656 124.441406 L 16.597656 120.292969 C 16.597656 119.234375 17.144531 118.296875 18.042969 117.746094 L 21.636719 115.671875 C 22.53125 115.164062 23.664062 115.164062 24.5625 115.671875 L 28.15625 117.746094 C 29.054688 118.257812 29.601562 119.234375 29.601562 120.292969 Z M 29.601562 120.292969 "/>
<path style=" stroke:none;fill-rule:nonzero;fill:rgb(7.843137%,26.27451%,42.745098%);fill-opacity:1;" d="M 50.027344 108.429688 L 50.027344 112.972656 C 50.027344 113.871094 49.519531 114.734375 48.738281 115.203125 L 44.792969 117.472656 C 44.402344 117.707031 43.972656 117.824219 43.503906 117.824219 C 43.074219 117.824219 42.605469 117.707031 42.214844 117.472656 L 38.269531 115.203125 C 37.488281 114.734375 36.984375 113.910156 36.984375 112.972656 L 36.984375 108.429688 C 36.984375 107.53125 37.488281 106.667969 38.269531 106.199219 L 42.214844 103.929688 C 42.605469 103.695312 43.035156 103.578125 43.503906 103.578125 C 43.933594 103.578125 44.402344 103.695312 44.792969 103.929688 L 48.738281 106.199219 C 49.558594 106.667969 50.027344 107.53125 50.027344 108.429688 Z M 50.027344 131.722656 L 50.027344 136.261719 C 50.027344 137.164062 49.519531 138.023438 48.738281 138.492188 L 44.792969 140.765625 C 44.402344 141 43.972656 141.117188 43.503906 141.117188 C 43.074219 141.117188 42.605469 141 42.214844 140.765625 L 38.269531 138.492188 C 37.488281 138.023438 36.984375 137.203125 36.984375 136.261719 L 36.984375 131.722656 C 36.984375 130.820312 37.488281 129.960938 38.269531 129.492188 L 42.214844 127.21875 C 42.605469 126.984375 43.035156 126.867188 43.503906 126.867188 C 43.933594 126.867188 44.402344 126.984375 44.792969 127.21875 L 48.738281 129.492188 C 49.558594 129.960938 50.027344 130.820312 50.027344 131.722656 Z M 50.027344 131.722656 "/>
<path style=" stroke:none;fill-rule:nonzero;fill:rgb(100%,53.72549%,0%);fill-opacity:1;" d="M 56.9375 120.292969 L 56.9375 124.441406 C 56.9375 125.496094 56.390625 126.4375 55.492188 126.984375 L 51.902344 129.058594 C 51.003906 129.570312 49.871094 129.570312 48.972656 129.058594 L 45.378906 126.984375 C 44.480469 126.476562 43.933594 125.496094 43.933594 124.441406 L 43.933594 120.292969 C 43.933594 119.234375 44.480469 118.296875 45.378906 117.746094 L 48.972656 115.671875 C 49.871094 115.164062 51.003906 115.164062 51.902344 115.671875 L 55.492188 117.746094 C 56.390625 118.296875 56.9375 119.273438 56.9375 120.292969 Z M 56.9375 120.292969 "/>
<path style=" stroke:none;fill-rule:nonzero;fill:rgb(7.843137%,26.27451%,42.745098%);fill-opacity:1;" d="M 70.644531 120.292969 L 70.644531 124.441406 C 70.644531 125.496094 70.097656 126.4375 69.199219 126.984375 L 65.609375 129.058594 C 64.710938 129.570312 63.578125 129.570312 62.679688 129.058594 L 59.085938 126.984375 C 58.1875 126.476562 57.640625 125.496094 57.640625 124.441406 L 57.640625 120.292969 C 57.640625 119.234375 58.1875 118.296875 59.085938 117.746094 L 62.679688 115.671875 C 63.578125 115.164062 64.710938 115.164062 65.609375 115.671875 L 69.199219 117.746094 C 70.097656 118.296875 70.644531 119.273438 70.644531 120.292969 Z M 70.644531 120.292969 "/>
<path style=" stroke:none;fill-rule:nonzero;fill:rgb(100%,53.72549%,0%);fill-opacity:1;" d="M 56.9375 98.566406 L 56.9375 101.464844 C 56.9375 102.363281 56.429688 103.226562 55.648438 103.695312 L 51.707031 105.964844 C 50.925781 106.433594 49.949219 106.433594 49.128906 105.964844 L 45.183594 103.695312 C 44.402344 103.226562 43.894531 102.402344 43.894531 101.464844 L 43.894531 96.921875 C 43.894531 96.21875 44.167969 95.589844 44.636719 95.121094 C 45.027344 94.769531 49.324219 95.472656 52.5625 96.609375 C 54.945312 97.390625 56.9375 98.566406 56.9375 98.566406 Z M 56.9375 98.566406 "/>
<path style=" stroke:none;fill-rule:nonzero;fill:rgb(76.862745%,41.960784%,7.058824%);fill-opacity:1;" d="M 30.304688 98.566406 L 30.304688 101.464844 C 30.304688 102.363281 30.8125 103.226562 31.59375 103.695312 L 35.539062 105.964844 C 36.320312 106.433594 37.296875 106.433594 38.113281 105.964844 L 42.058594 103.695312 C 42.839844 103.226562 43.347656 102.402344 43.347656 101.464844 L 43.347656 96.921875 C 43.347656 96.21875 43.074219 95.589844 42.605469 95.121094 C 42.371094 94.886719 37.101562 95.511719 33.898438 96.84375 C 31.59375 97.785156 30.304688 98.566406 30.304688 98.566406 Z M 30.304688 98.566406 "/>
<path style=" stroke:none;fill-rule:nonzero;fill:rgb(100%,53.72549%,0%);fill-opacity:1;" d="M 56.859375 146.050781 L 56.859375 143.425781 C 56.859375 142.527344 56.351562 141.664062 55.570312 141.195312 L 51.628906 138.925781 C 50.847656 138.453125 49.871094 138.453125 49.050781 138.925781 L 45.105469 141.195312 C 44.324219 141.664062 43.816406 142.488281 43.816406 143.425781 L 43.816406 147.96875 C 43.816406 148.554688 44.011719 149.101562 44.324219 149.53125 C 44.402344 149.609375 49.207031 149.414062 52.484375 148.28125 C 54.867188 147.457031 56.859375 146.050781 56.859375 146.050781 Z M 56.859375 146.050781 "/>
<path style=" stroke:none;fill-rule:nonzero;fill:rgb(76.862745%,41.960784%,7.058824%);fill-opacity:1;" d="M 30.265625 146.011719 L 30.265625 143.386719 C 30.265625 142.488281 30.773438 141.625 31.554688 141.15625 L 35.5 138.886719 C 36.28125 138.414062 37.257812 138.414062 38.074219 138.886719 L 42.019531 141.15625 C 42.800781 141.625 43.308594 142.449219 43.308594 143.386719 L 43.308594 147.96875 C 43.308594 148.554688 43.113281 149.140625 42.722656 149.570312 C 42.683594 149.648438 37.023438 149.375 33.820312 148.046875 C 31.515625 147.105469 30.265625 146.011719 30.265625 146.011719 Z M 30.265625 146.011719 "/>
<path style=" stroke:none;fill-rule:nonzero;fill:rgb(3.137255%,16.470588%,28.627451%);fill-opacity:1;" d="M 43.542969 117.824219 C 43.113281 117.824219 42.644531 117.707031 42.253906 117.472656 L 38.308594 115.203125 C 37.527344 114.734375 37.023438 113.910156 37.023438 112.972656 L 37.023438 108.429688 C 37.023438 107.53125 37.527344 106.667969 38.308594 106.199219 L 42.253906 103.929688 C 42.644531 103.695312 43.074219 103.578125 43.542969 103.578125 M 43.542969 141.117188 C 43.113281 141.117188 42.644531 141 42.253906 140.765625 L 38.308594 138.492188 C 37.527344 138.023438 37.023438 137.203125 37.023438 136.261719 L 37.023438 131.722656 C 37.023438 130.820312 37.527344 129.960938 38.308594 129.492188 L 42.253906 127.21875 C 42.644531 126.984375 43.074219 126.867188 43.542969 126.867188 "/>
</g>
</svg>
